P2
50 50
255
196 159 255 255 255 255 255 198 136 88 53 32 25 32 53 88 136 198 255 255 255 255 255 255 255 255 255 255 255 255 255 255 255 255 255 255 255 255 255 255 255 255 255 255 255 255 255 255 255 255
187 150 255 255 255 255 255 191 129 81 46 25 18 12 7 1 129 191 255 255 255 255 255 255 255 255 255 255 255 255 255 255 255 255 255 255 255 255 255 255 255 255 255 255 255 255 255 255 255 255
185 147 255 255 255 255 255 44 38 33 28 23 25 32 53 6 136 198 255 255 255 255 255 3 8 14 255 255 255 255 255 255 255 255 255 255 255 255 255 255 255 255 255 255 255 255 255 255 255 255
187 150 255 255 255 255 49 219 157 109 74 53 46 53 74 12 157 219 255 255 255 255 255 255 255 255 19 25 30 255 255 255 255 255 255 255 255 255 255 255 255 255 255 255 255 255 255 255 255 255
196 159 255 255 255 255 255 252 191 143 109 88 81 88 17 143 191 252 255 255 255 255 255 255 255 255 255 255 255 35 41 255 255 255 255 255 255 255 255 255 255 255 255 255 255 255 255 254 247 253
210 173 255 255 255 255 255 255 239 191 157 136 129 136 22 191 239 255 255 255 255 255 255 255 255 255 255 255 255 255 255 46 52 57 255 255 255 255 255 255 255 255 255 255 255 255 252 246 240 243
230 193 255 255 255 255 255 255 255 252 219 198 191 198 27 252 255 255 255 255 255 255 255 255 255 255 255 255 255 255 255 255 255 255 63 68 255 255 255 255 255 255 255 255 255 254 247 241 235 236
255 219 255 255 255 255 255 255 255 255 255 255 255 255 33 255 255 255 255 255 255 255 255 255 255 255 255 255 255 255 255 255 255 255 255 255 74 79 85 255 255 255 255 255 255 255 245 239 234 232
255 250 255 255 255 255 255 255 255 255 255 255 255 38 255 255 255 255 255 255 255 255 255 255 255 255 255 255 255 255 255 255 255 255 255 255 255 255 255 90 96 101 255 255 255 255 247 241 235 231
255 255 255 255 255 255 255 255 255 255 255 255 255 43 255 255 255 255 255 255 255 255 255 255 255 255 255 255 255 255 255 255 255 255 255 255 255 255 255 255 255 105 255 255 255 255 252 246 240 232
255 255 255 255 255 255 255 255 255 255 255 255 255 49 255 255 255 255 255 255 255 255 255 255 255 255 255 255 255 255 255 255 255 255 255 255 255 255 255 255 255 255 110 255 255 255 255 254 247 236
255 255 255 255 255 255 255 255 255 255 255 255 54 255 255 255 255 255 255 255 255 255 255 255 255 255 255 255 255 255 255 255 255 255 255 255 255 255 255 255 255 255 116 255 255 255 255 255 255 243
255 255 255 255 255 255 255 255 255 255 255 255 59 255 255 255 255 255 255 255 255 255 255 255 255 255 255 255 255 255 255 255 255 255 255 255 255 255 255 255 255 255 255 122 255 255 255 255 255 253
255 255 255 255 255 255 255 255 255 255 255 255 65 255 255 255 255 255 255 255 255 255 255 255 255 255 255 255 255 255 255 255 255 255 255 255 255 255 255 255 255 255 255 255 128 255 255 255 255 255
252 245 255 255 255 255 255 255 255 255 255 255 70 255 255 255 255 255 255 255 255 255 255 255 255 255 255 255 255 255 255 255 255 255 255 255 255 255 255 255 255 255 255 255 134 255 255 255 255 255
243 244 255 255 255 255 255 255 255 255 255 75 255 255 255 255 255 255 255 255 255 255 255 255 255 255 255 255 255 255 255 255 255 255 255 255 255 255 255 255 255 255 255 255 255 139 255 255 255 255
236 245 255 255 255 255 255 255 255 255 255 81 255 255 255 255 255 255 255 255 255 255 255 255 255 255 255 255 255 255 255 255 255 255 255 255 255 255 255 255 255 255 255 255 255 145 255 255 255 255
232 250 255 255 255 255 255 255 255 255 255 86 255 255 255 255 255 255 255 255 255 255 255 255 255 243 255 255 255 255 255 255 255 255 252 247 245 247 252 255 255 255 255 255 255 255 151 255 255 255
230 255 255 255 255 255 255 255 255 255 91 255 255 255 255 255 255 255 255 255 255 255 255 255 235 236 244 245 246 255 255 255 255 255 255 253 243 236 232 231 232 236 243 253 255 255 255 255 255 255
232 255 255 255 255 255 255 255 255 255 96 255 255 255 255 255 255 255 255 255 255 255 255 255 230 231 237 238 240 242 183 255 255 255 255 255 255 245 237 230 227 226 227 230 237 245 255 255 255 255
236 255 255 255 255 255 255 255 255 255 102 108 255 255 255 255 255 255 255 255 255 255 255 255 227 228 232 234 236 238 174 172 255 255 255 255 255 254 244 236 230 226 225 226 230 236 244 254 255 255
243 255 255 255 255 255 255 255 255 255 107 255 113 118 124 129 255 255 255 255 255 255 255 225 226 227 229 231 233 235 166 164 255 255 255 255 255 253 243 235 230 226 225 226 230 235 243 253 255 255
252 255 255 255 255 255 255 255 255 112 255 255 255 255 255 255 134 139 145 150 255 255 255 226 227 228 229 230 232 234 161 158 157 255 255 255 255 255 252 242 235 230 227 226 227 230 235 242 252 255
255 255 255 255 255 255 255 255 255 118 255 255 255 255 255 255 255 255 255 255 255 255 255 230 230 231 229 231 233 235 156 154 153 154 255 255 255 255 255 252 243 236 231 228 227 228 231 236 243 252
255 255 255 255 255 255 255 255 255 123 255 253 251 253 255 255 255 255 255 255 255 255 255 235 235 236 232 234 236 238 154 151 150 151 255 255 255 255 255 252 244 237 232 229 229 229 232 237 244 252
255 255 255 255 255 255 255 255 128 250 245 244 245 250 255 255 255 255 255 255 255 255 243 243 243 243 237 238 240 242 153 150 150 150 153 255 255 255 255 255 253 245 238 234 231 230 231 234 238 245
255 255 255 255 255 255 255 255 134 244 239 237 239 244 251 255 255 255 255 255 255 255 253 252 252 252 244 245 246 248 154 151 145 151 154 255 255 255 255 255 254 246 240 236 233 232 233 236 240 246
255 255 255 255 255 255 255 255 139 239 235 233 235 239 247 255 255 255 255 255 255 255 255 255 255 255 252 253 254 255 156 154 140 154 156 161 255 255 255 255 255 255 248 242 238 236 235 236 238 242
255 255 255 255 255 255 252 243 144 232 230 232 236 243 252 255 255 255 255 255 255 255 255 255 255 255 255 255 255 255 161 158 135 158 161 165 171 178 188 199 211 226 242 108 106 108 111 118 126 138
255 255 255 255 255 255 249 150 233 229 228 229 233 240 249 255 255 255 255 255 255 255 255 255 255 255 255 255 255 255 166 164 130 164 166 171 177 184 194 205 217 232 248 104 103 104 108 114 123 134
255 255 255 255 255 255 246 155 231 227 226 227 231 237 246 255 255 255 255 255 255 255 255 255 255 255 255 255 255 255 174 172 125 172 174 178 184 192 201 212 225 239 255 103 102 103 106 113 121 133
255 255 255 255 255 255 244 236 160 227 225 227 230 236 244 255 255 255 255 255 255 255 255 255 255 255 255 255 255 255 183 181 120 181 183 188 194 201 211 222 234 249 255 104 96 104 108 114 123 134
255 255 255 255 253 243 235 230 166 225 226 230 235 243 253 255 255 255 255 255 244 252 255 255 255 255 255 255 255 255 195 192 115 192 195 199 205 212 222 233 245 255 255 91 106 108 111 118 126 138
255 255 255 255 252 243 235 230 171 225 226 230 235 243 252 255 255 255 255 255 235 230 255 255 255 245 234 225 217 211 207 205 110 205 207 211 217 225 234 245 255 255 255 85 113 114 118 124 133 144
255 255 255 255 252 243 235 230 176 226 227 230 235 243 252 255 255 255 255 255 230 227 255 255 255 255 249 239 232 226 222 219 104 219 222 226 232 239 249 255 255 255 255 80 121 123 126 133 141 153
255 255 255 252 243 236 231 228 227 182 231 236 243 252 255 255 255 255 255 252 226 226 255 255 255 255 255 255 248 242 238 106 101 95 238 242 248 255 255 255 255 255 74 134 133 134 138 144 153 164
255 255 255 252 244 237 232 229 229 187 232 237 244 252 255 255 255 255 255 252 225 227 255 255 255 255 255 254 246 240 113 233 232 233 90 84 246 254 255 255 255 255 69 148 146 148 151 158 166 178
255 255 255 253 245 238 234 231 230 192 234 238 245 253 255 255 255 255 255 254 226 230 255 255 255 255 255 253 245 120 234 231 230 231 234 239 78 72 255 255 255 255 63 164 163 164 168 174 183 194
255 255 255 254 246 240 235 233 232 233 198 240 246 254 255 255 255 255 255 255 230 236 255 255 255 255 255 252 127 237 233 230 229 230 233 237 244 252 66 61 255 58 255 183 181 183 186 193 201 213
255 255 255 248 242 238 235 234 235 238 203 248 255 255 255 255 255 255 255 255 235 245 255 255 255 255 255 134 243 236 231 228 227 228 231 236 243 252 255 255 55 49 255 204 203 204 208 214 222 234
255 255 255 250 244 240 237 237 237 240 244 250 255 255 255 255 255 255 255 255 243 255 255 255 255 255 255 141 243 235 230 227 226 227 230 235 243 252 255 255 255 255 43 227 226 227 231 237 246 255
255 255 255 255 252 246 242 240 239 240 242 246 252 255 255 255 255 255 255 255 253 255 255 255 255 255 148 252 243 235 230 227 226 227 230 235 243 252 255 255 255 255 255 37 32 229 233 240 249 255
255 255 255 255 255 249 245 243 242 243 245 249 255 255 255 255 255 255 255 255 255 255 255 255 255 156 255 253 243 235 230 226 225 226 230 235 243 253 255 255 255 255 255 230 232 26 20 252 255 255
255 255 255 255 255 252 248 246 245 246 248 252 255 255 255 255 255 255 255 255 255 255 255 255 255 255 255 254 244 236 230 226 225 226 230 236 244 254 255 255 255 255 255 234 235 240 247 14 8 255
255 255 255 255 255 254 251 249 248 249 251 254 255 255 255 255 255 255 255 255 255 255 255 255 255 255 255 255 245 237 231 227 226 227 231 237 245 255 255 255 255 255 255 238 240 245 252 255 255 255
255 255 255 255 255 255 255 254 252 252 252 254 255 255 255 255 255 255 255 255 255 255 255 255 255 255 255 245 236 230 227 226 227 230 236 245 255 255 255 255 255 255 255 255 252 255 255 255 255 255
255 255 255 255 255 255 255 255 255 255 255 255 255 255 255 255 255 255 255 255 255 255 255 255 255 253 243 235 230 226 225 226 230 235 243 253 255 255 255 255 255 255 255 255 255 255 255 255 255 255
255 255 255 255 255 255 255 255 255 255 255 255 255 255 255 255 255 255 255 255 255 255 255 255 252 243 235 230 227 226 227 230 235 243 252 255 255 255 255 255 255 255 255 255 255 255 255 255 255 255
255 255 255 255 255 255 255 255 255 255 255 255 255 255 255 255 255 255 255 255 255 255 255 252 243 236 231 228 227 228 231 236 243 252 255 255 255 255 255 255 255 255 255 255 255 255 255 255 255 255
255 255 255 255 255 255 255 255 255 255 255 255 255 255 255 255 255 255 255 255 255 255 252 244 237 232 229 229 229 232 237 244 252 255 255 255 255 255 255 255 255 255 255 255 255 255 255 255 255 255
